<?xml version="1.0" encoding="utf-8"?>
<svg viewBox="0 0 512 512" fill="none" xmlns="http://www.w3.org/2000/svg">
  <rect height="512" rx="50" width="512" style="fill: rgb(247, 223, 30);"/>
  <path d="M 349.977 400.868 C 359.852 416.992 372.7 428.844 395.423 428.844 C 414.512 428.844 426.706 419.304 426.706 406.121 C 426.706 390.324 414.177 384.729 393.166 375.539 L 381.649 370.597 C 348.405 356.434 326.32 338.692 326.32 301.183 C 326.32 266.632 352.646 240.329 393.789 240.329 C 423.08 240.329 444.137 250.523 459.312 277.215 L 423.438 300.249 C 415.539 286.086 407.018 280.507 393.789 280.507 C 380.295 280.507 371.743 289.067 371.743 300.249 C 371.743 314.07 380.303 319.665 400.069 328.225 L 411.586 333.159 C 450.729 349.944 472.829 367.056 472.829 405.53 C 472.829 447.007 440.246 469.73 396.489 469.73 C 353.705 469.73 326.063 449.342 312.539 422.619 L 349.977 400.868 Z M 187.235 404.861 C 194.472 417.701 201.056 428.556 216.884 428.556 C 232.02 428.556 241.568 422.634 241.568 399.608 L 241.568 242.959 L 287.637 242.959 L 287.637 400.23 C 287.637 447.933 259.669 469.644 218.845 469.644 C 181.959 469.644 160.598 450.556 149.735 427.564 L 187.235 404.861 Z" style="fill-rule: nonzero; fill: rgb(46, 48, 44);"/>
</svg>