<?xml version="1.0" standalone="no"?>
<!DOCTYPE svg PUBLIC "-//W3C//DTD SVG 20010904//EN"
 "http://www.w3.org/TR/2001/REC-SVG-20010904/DTD/svg10.dtd">
<svg version="1.0" xmlns="http://www.w3.org/2000/svg"
 width="512.000000pt" height="512.000000pt" viewBox="0 0 512.000000 512.000000"
 preserveAspectRatio="xMidYMid meet">
<metadata>
Created by potrace 1.14, written by Peter Selinger 2001-2017
</metadata>
<g transform="translate(0.000000,512.000000) scale(0.100000,-0.100000)"
fill="#000000" stroke="none">
<path d="M1720 4164 c-36 -25 -177 -125 -315 -223 l-250 -178 -3 -1216 -2
-1217 92 -68 c51 -37 103 -74 114 -82 12 -8 97 -69 189 -135 91 -66 184 -133
206 -148 l39 -28 123 77 c67 43 131 82 142 88 11 6 65 39 120 74 55 35 107 68
115 73 8 5 103 63 210 129 107 66 202 124 210 129 8 6 100 63 204 128 105 65
194 120 200 122 6 2 15 8 21 13 10 9 666 416 719 446 34 20 48 29 101 63 22
15 108 68 190 119 179 111 201 124 285 179 l65 42 -115 -5 c-63 -3 -171 -8
-240 -11 -69 -3 -177 -7 -240 -10 -63 -3 -168 -7 -233 -10 l-117 -5 -318 -156
c-174 -86 -441 -218 -592 -292 -151 -75 -277 -136 -280 -137 -3 -1 -130 -63
-283 -138 -152 -75 -280 -137 -282 -137 -3 0 -5 405 -5 900 0 495 2 900 4 900
3 0 83 -38 505 -241 90 -44 165 -79 166 -79 4 0 159 -74 399 -189 92 -44 169
-81 171 -81 4 0 335 -159 426 -205 79 -40 93 -44 185 -49 122 -7 434 -21 704
-31 l145 -6 -37 23 c-21 13 -70 43 -110 67 -355 216 -1818 1106 -2140 1303
-225 136 -411 248 -416 248 -4 0 -36 -21 -72 -46z"/>
</g>
</svg>
